{"asset":{"version":"2.0","generator":"Blockbench 4.12.1 glTF exporter"},"scenes":[{"nodes":[27],"name":"blockbench_export"}],"scene":0,"nodes":[{"translation":[0,0.5625,0],"name":"head","mesh":0},{"translation":[0,-0.125,0],"name":"cylinder","mesh":1},{"rotation":[-0.7071067811865475,0,0,0.7071067811865476],"translation":[0,0.875,0],"name":"plane","mesh":2},{"translation":[0,0.8125,0],"name":"head","children":[0,1,2]},{"translation":[0,-0.5,0],"name":"cuboid","mesh":3},{"translation":[0.5,-0.5625,0],"name":"cuboid","mesh":4},{"translation":[0.5,-0.625,0],"name":"cuboid","mesh":5},{"translation":[0.46875,-0.6875,0],"name":"cuboid","mesh":6},{"translation":[-0.046875,-0.78125,0],"name":"cuboid","mesh":7},{"rotation":[0,0,-0.7071067811865475,0.7071067811865476],"translation":[0.0625,-0.40625,0],"name":"cuboid","mesh":8},{"translation":[0.0625,-0.5625,-0.1875],"name":"gun","children":[4,5,6,7,8,9]},{"translation":[0,0.0625,0],"name":"cylinder","mesh":9},{"name":"sphere","mesh":10},{"translation":[0,-0.75,0],"name":"sphere","mesh":11},{"translation":[0,-0.75,0],"name":"right_forearm","children":[10,11,12,13]},{"name":"cylinder","mesh":12},{"rotation":[0,0,0.7071067811865475,0.7071067811865476],"translation":[0.5,0.6875,0],"name":"right_arm","children":[14,15]},{"translation":[0,0.0625,0],"name":"cylinder","mesh":13},{"name":"sphere","mesh":14},{"translation":[0,-0.75,0],"name":"sphere","mesh":15},{"translation":[0,-0.75,0],"name":"left_forearm","children":[17,18,19]},{"name":"cylinder","mesh":16},{"rotation":[0,0,-0.7071067811865475,0.7071067811865476],"translation":[-0.5,0.6875,0],"name":"left_arm","children":[20,21]},{"translation":[0,-0.1875,-0.21875],"name":"beveled_cuboid","mesh":17},{"translation":[-0.5,0.6875,0],"name":"sphere","mesh":18},{"translation":[0.5,0.6875,0],"name":"sphere","mesh":19},{"name":"body","children":[16,22,23,24,25]},{"children":[3,26]}],"bufferViews":[{"buffer":0,"byteOffset":0,"byteLength":3264,"target":34962,"byteStride":12},{"buffer":0,"byteOffset":3264,"byteLength":3264,"target":34962,"byteStride":12},{"buffer":0,"byteOffset":6528,"byteLength":2176,"target":34962,"byteStride":8},{"buffer":0,"byteOffset":8704,"byteLength":720,"target":34963},{"buffer":0,"byteOffset":9424,"byteLength":1440,"target":34962,"byteStride":12},{"buffer":0,"byteOffset":10864,"byteLength":1440,"target":34962,"byteStride":12},{"buffer":0,"byteOffset":12304,"byteLength":960,"target":34962,"byteStride":8},{"buffer":0,"byteOffset":13264,"byteLength":288,"target":34963},{"buffer":0,"byteOffset":13552,"byteLength":48,"target":34962,"byteStride":12},{"buffer":0,"byteOffset":13600,"byteLength":48,"target":34962,"byteStride":12},{"buffer":0,"byteOffset":13648,"byteLength":32,"target":34962,"byteStride":8},{"buffer":0,"byteOffset":13680,"byteLength":12,"target":34963},{"buffer":0,"byteOffset":13692,"byteLength":288,"target":34962,"byteStride":12},{"buffer":0,"byteOffset":13980,"byteLength":288,"target":34962,"byteStride":12},{"buffer":0,"byteOffset":14268,"byteLength":192,"target":34962,"byteStride":8},{"buffer":0,"byteOffset":14460,"byteLength":72,"target":34963},{"buffer":0,"byteOffset":14532,"byteLength":288,"target":34962,"byteStride":12},{"buffer":0,"byteOffset":14820,"byteLength":288,"target":34962,"byteStride":12},{"buffer":0,"byteOffset":15108,"byteLength":192,"target":34962,"byteStride":8},{"buffer":0,"byteOffset":15300,"byteLength":72,"target":34963},{"buffer":0,"byteOffset":15372,"byteLength":288,"target":34962,"byteStride":12},{"buffer":0,"byteOffset":15660,"byteLength":288,"target":34962,"byteStride":12},{"buffer":0,"byteOffset":15948,"byteLength":192,"target":34962,"byteStride":8},{"buffer":0,"byteOffset":16140,"byteLength":72,"target":34963},{"buffer":0,"byteOffset":16212,"byteLength":288,"target":34962,"byteStride":12},{"buffer":0,"byteOffset":16500,"byteLength":288,"target":34962,"byteStride":12},{"buffer":0,"byteOffset":16788,"byteLength":192,"target":34962,"byteStride":8},{"buffer":0,"byteOffset":16980,"byteLength":72,"target":34963},{"buffer":0,"byteOffset":17052,"byteLength":288,"target":34962,"byteStride":12},{"buffer":0,"byteOffset":17340,"byteLength":288,"target":34962,"byteStride":12},{"buffer":0,"byteOffset":17628,"byteLength":192,"target":34962,"byteStride":8},{"buffer":0,"byteOffset":17820,"byteLength":72,"target":34963},{"buffer":0,"byteOffset":17892,"byteLength":288,"target":34962,"byteStride":12},{"buffer":0,"byteOffset":18180,"byteLength":288,"target":34962,"byteStride":12},{"buffer":0,"byteOffset":18468,"byteLength":192,"target":34962,"byteStride":8},{"buffer":0,"byteOffset":18660,"byteLength":72,"target":34963},{"buffer":0,"byteOffset":18732,"byteLength":2592,"target":34962,"byteStride":12},{"buffer":0,"byteOffset":21324,"byteLength":2592,"target":34962,"byteStride":12},{"buffer":0,"byteOffset":23916,"byteLength":1728,"target":34962,"byteStride":8},{"buffer":0,"byteOffset":25644,"byteLength":576,"target":34963},{"buffer":0,"byteOffset":26220,"byteLength":1344,"target":34962,"byteStride":12},{"buffer":0,"byteOffset":27564,"byteLength":1344,"target":34962,"byteStride":12},{"buffer":0,"byteOffset":28908,"byteLength":896,"target":34962,"byteStride":8},{"buffer":0,"byteOffset":29804,"byteLength":288,"target":34963},{"buffer":0,"byteOffset":30092,"byteLength":1344,"target":34962,"byteStride":12},{"buffer":0,"byteOffset":31436,"byteLength":1344,"target":34962,"byteStride":12},{"buffer":0,"byteOffset":32780,"byteLength":896,"target":34962,"byteStride":8},{"buffer":0,"byteOffset":33676,"byteLength":288,"target":34963},{"buffer":0,"byteOffset":33964,"byteLength":2592,"target":34962,"byteStride":12},{"buffer":0,"byteOffset":36556,"byteLength":2592,"target":34962,"byteStride":12},{"buffer":0,"byteOffset":39148,"byteLength":1728,"target":34962,"byteStride":8},{"buffer":0,"byteOffset":40876,"byteLength":576,"target":34963},{"buffer":0,"byteOffset":41452,"byteLength":2592,"target":34962,"byteStride":12},{"buffer":0,"byteOffset":44044,"byteLength":2592,"target":34962,"byteStride":12},{"buffer":0,"byteOffset":46636,"byteLength":1728,"target":34962,"byteStride":8},{"buffer":0,"byteOffset":48364,"byteLength":576,"target":34963},{"buffer":0,"byteOffset":48940,"byteLength":1344,"target":34962,"byteStride":12},{"buffer":0,"byteOffset":50284,"byteLength":1344,"target":34962,"byteStride":12},{"buffer":0,"byteOffset":51628,"byteLength":896,"target":34962,"byteStride":8},{"buffer":0,"byteOffset":52524,"byteLength":288,"target":34963},{"buffer":0,"byteOffset":52812,"byteLength":1344,"target":34962,"byteStride":12},{"buffer":0,"byteOffset":54156,"byteLength":1344,"target":34962,"byteStride":12},{"buffer":0,"byteOffset":55500,"byteLength":896,"target":34962,"byteStride":8},{"buffer":0,"byteOffset":56396,"byteLength":288,"target":34963},{"buffer":0,"byteOffset":56684,"byteLength":2592,"target":34962,"byteStride":12},{"buffer":0,"byteOffset":59276,"byteLength":2592,"target":34962,"byteStride":12},{"buffer":0,"byteOffset":61868,"byteLength":1728,"target":34962,"byteStride":8},{"buffer":0,"byteOffset":63596,"byteLength":576,"target":34963},{"buffer":0,"byteOffset":64172,"byteLength":1152,"target":34962,"byteStride":12},{"buffer":0,"byteOffset":65324,"byteLength":1152,"target":34962,"byteStride":12},{"buffer":0,"byteOffset":66476,"byteLength":768,"target":34962,"byteStride":8},{"buffer":0,"byteOffset":67244,"byteLength":264,"target":34963},{"buffer":0,"byteOffset":67508,"byteLength":1344,"target":34962,"byteStride":12},{"buffer":0,"byteOffset":68852,"byteLength":1344,"target":34962,"byteStride":12},{"buffer":0,"byteOffset":70196,"byteLength":896,"target":34962,"byteStride":8},{"buffer":0,"byteOffset":71092,"byteLength":288,"target":34963},{"buffer":0,"byteOffset":71380,"byteLength":1344,"target":34962,"byteStride":12},{"buffer":0,"byteOffset":72724,"byteLength":1344,"target":34962,"byteStride":12},{"buffer":0,"byteOffset":74068,"byteLength":896,"target":34962,"byteStride":8},{"buffer":0,"byteOffset":74964,"byteLength":288,"target":34963}],"buffers":[{"byteLength":75252,"uri":"data:application/octet-stream;base64,"}],"accessors":[{"bufferView":0,"componentType":5126,"count":272,"max":[0.5,0.5,0.5],"min":[-0.5,-0.5,-0.8125],"type":"VEC3"},{"bufferView":1,"componentType":5126,"count":272,"max":[0.9659258127212524,0.9659258127212524,0.9659258127212524],"min":[-0.9659258127212524,-0.9659258127212524,-0.9659258127212524],"type":"VEC3"},{"bufferView":2,"componentType":5126,"count":272,"max":[0.5687963962554932,0.3984375],"min":[0.003724671434611082,0],"type":"VEC2"},{"bufferView":3,"componentType":5123,"count":360,"max":[271],"min":[0],"type":"SCALAR"},{"bufferView":4,"componentType":5126,"count":120,"max":[0.125,0.5,0.125],"min":[-0.125,0,-0.125],"type":"VEC3"},{"bufferView":5,"componentType":5126,"count":120,"max":[1,1,1],"min":[-1,-1,-1],"type":"VEC3"},{"bufferView":6,"componentType":5126,"count":120,"max":[0.5625,0.5703125],"min":[0.003064843825995922,0.2109375],"type":"VEC2"},{"bufferView":7,"componentType":5123,"count":144,"max":[119],"min":[0],"type":"SCALAR"},{"bufferView":8,"componentType":5126,"count":4,"max":[0.8125,0,0.875],"min":[-0.8125,0,-0.5],"type":"VEC3"},{"bufferView":9,"componentType":5126,"count":4,"max":[0,1,0],"min":[0,1,0],"type":"VEC3"},{"bufferView":10,"componentType":5126,"count":4,"max":[0.796875,0.140625],"min":[0.671875,0.015625],"type":"VEC2"},{"bufferView":11,"componentType":5123,"count":6,"max":[3],"min":[0],"type":"SCALAR"},{"bufferView":12,"componentType":5126,"count":24,"max":[0.21875,0.4375,0.0625],"min":[-0.171875,0.125,-0.0625],"type":"VEC3"},{"bufferView":13,"componentType":5126,"count":24,"max":[1,0.9874406456947327,1],"min":[-1,-0.9968152642250061,-1],"type":"VEC3"},{"bufferView":14,"componentType":5126,"count":24,"max":[0.4375,0.453125],"min":[0.125,0.125],"type":"VEC2"},{"bufferView":15,"componentType":5123,"count":36,"max":[23],"min":[0],"type":"SCALAR"},{"bufferView":16,"componentType":5126,"count":24,"max":[-0.125,0.5,0.0625],"min":[-0.28125,-0.484375,-0.0625],"type":"VEC3"},{"bufferView":17,"componentType":5126,"count":24,"max":[0.9999983906745911,0.9756097793579102,1],"min":[-1,-1,-1],"type":"VEC3"},{"bufferView":18,"componentType":5126,"count":24,"max":[0.484375,0.515625],"min":[0,0],"type":"VEC2"},{"bufferView":19,"componentType":5123,"count":36,"max":[23],"min":[0],"type":"SCALAR"},{"bufferView":20,"componentType":5126,"count":24,"max":[-0.03125,0.546875,0.078125],"min":[-0.1875,-0.453125,-0.078125],"type":"VEC3"},{"bufferView":21,"componentType":5126,"count":24,"max":[0.9999983906745911,0.9748585224151611,1],"min":[-1,-1,-1],"type":"VEC3"},{"bufferView":22,"componentType":5126,"count":24,"max":[0.453125,0.4375],"min":[0,0],"type":"VEC2"},{"bufferView":23,"componentType":5123,"count":36,"max":[23],"min":[0],"type":"SCALAR"},{"bufferView":24,"componentType":5126,"count":24,"max":[-0.125,0.328125,0.09375],"min":[-0.28125,-0.140625,-0.09375],"type":"VEC3"},{"bufferView":25,"componentType":5126,"count":24,"max":[0.9999927878379822,0.99430912733078,1],"min":[-1,-1,-1],"type":"VEC3"},{"bufferView":26,"componentType":5126,"count":24,"max":[0.4375,0.484375],"min":[0.12890625,0],"type":"VEC2"},{"bufferView":27,"componentType":5123,"count":36,"max":[23],"min":[0],"type":"SCALAR"},{"bufferView":28,"componentType":5126,"count":24,"max":[0.25,0.28125,0.046875],"min":[0.078125,0.21875,-0.046875],"type":"VEC3"},{"bufferView":29,"componentType":5126,"count":24,"max":[1,1,1],"min":[-0.800000011920929,-1,-1],"type":"VEC3"},{"bufferView":30,"componentType":5126,"count":24,"max":[0.484375,0.484375],"min":[0.296875,0],"type":"VEC2"},{"bufferView":31,"componentType":5123,"count":36,"max":[23],"min":[0],"type":"SCALAR"},{"bufferView":32,"componentType":5126,"count":24,"max":[0.09375,0.03125,0.046875],"min":[-0.109375,-0.03125,-0.046875],"type":"VEC3"},{"bufferView":33,"componentType":5126,"count":24,"max":[1,1,1],"min":[-1,-1,-1],"type":"VEC3"},{"bufferView":34,"componentType":5126,"count":24,"max":[0.5,0.46875],"min":[0.40625,0.046875],"type":"VEC2"},{"bufferView":35,"componentType":5123,"count":36,"max":[23],"min":[0],"type":"SCALAR"},{"bufferView":36,"componentType":5126,"count":216,"max":[0.125,0,0.125],"min":[-0.125,-0.765625,-0.125],"type":"VEC3"},{"bufferView":37,"componentType":5126,"count":216,"max":[1,1,1],"min":[-1,-1,-1],"type":"VEC3"},{"bufferView":38,"componentType":5126,"count":216,"max":[0.5676047205924988,0.5258433818817139],"min":[0.1202523410320282,0.1015625],"type":"VEC2"},{"bufferView":39,"componentType":5123,"count":288,"max":[215],"min":[0],"type":"SCALAR"},{"bufferView":40,"componentType":5126,"count":112,"max":[0.1875,0.1875,0.1875],"min":[-0.1875,-0.1875,-0.1875],"type":"VEC3"},{"bufferView":41,"componentType":5126,"count":112,"max":[0.9238795042037964,0.9238795042037964,0.9238795042037964],"min":[-0.9238795042037964,-0.9238795042037964,-0.9238795042037964],"type":"VEC3"},{"bufferView":42,"componentType":5126,"count":112,"max":[0.640625,0.6328125],"min":[0.002010937547311187,0],"type":"VEC2"},{"bufferView":43,"componentType":5123,"count":144,"max":[111],"min":[0],"type":"SCALAR"},{"bufferView":44,"componentType":5126,"count":112,"max":[0.25,0.25,0.25],"min":[-0.25,-0.25,-0.25],"type":"VEC3"},{"bufferView":45,"componentType":5126,"count":112,"max":[0.9238795042037964,0.9238795042037964,0.9238795042037964],"min":[-0.9238795042037964,-0.9238795042037964,-0.9238795042037964],"type":"VEC3"},{"bufferView":46,"componentType":5126,"count":112,"max":[0.6328125,0.625],"min":[0.041742969304323196,0],"type":"VEC2"},{"bufferView":47,"componentType":5123,"count":144,"max":[111],"min":[0],"type":"SCALAR"},{"bufferView":48,"componentType":5126,"count":216,"max":[0.125,0,0.125],"min":[-0.125,-0.765625,-0.125],"type":"VEC3"},{"bufferView":49,"componentType":5126,"count":216,"max":[1,1,1],"min":[-1,-1,-1],"type":"VEC3"},{"bufferView":50,"componentType":5126,"count":216,"max":[0.5625,0.5703125],"min":[0.003064843825995922,0.2890625],"type":"VEC2"},{"bufferView":51,"componentType":5123,"count":288,"max":[215],"min":[0],"type":"SCALAR"},{"bufferView":52,"componentType":5126,"count":216,"max":[0.125,0,0.125],"min":[-0.125,-0.765625,-0.125],"type":"VEC3"},{"bufferView":53,"componentType":5126,"count":216,"max":[1,1,1],"min":[-1,-1,-1],"type":"VEC3"},{"bufferView":54,"componentType":5126,"count":216,"max":[0.4969351589679718,0.578125],"min":[0.125,0.1015625],"type":"VEC2"},{"bufferView":55,"componentType":5123,"count":288,"max":[215],"min":[0],"type":"SCALAR"},{"bufferView":56,"componentType":5126,"count":112,"max":[0.1875,0.1875,0.1875],"min":[-0.1875,-0.1875,-0.1875],"type":"VEC3"},{"bufferView":57,"componentType":5126,"count":112,"max":[0.9238795042037964,0.9238795042037964,0.9238795042037964],"min":[-0.9238795042037964,-0.9238795042037964,-0.9238795042037964],"type":"VEC3"},{"bufferView":58,"componentType":5126,"count":112,"max":[0.65625,0.6484375],"min":[0.15625,0],"type":"VEC2"},{"bufferView":59,"componentType":5123,"count":144,"max":[111],"min":[0],"type":"SCALAR"},{"bufferView":60,"componentType":5126,"count":112,"max":[0.25,0.25,0.25],"min":[-0.25,-0.25,-0.25],"type":"VEC3"},{"bufferView":61,"componentType":5126,"count":112,"max":[0.9238795042037964,0.9238795042037964,0.9238795042037964],"min":[-0.9238795042037964,-0.9238795042037964,-0.9238795042037964],"type":"VEC3"},{"bufferView":62,"componentType":5126,"count":112,"max":[0.640625,0.6328125],"min":[0.002680468838661909,0.052516162395477295],"type":"VEC2"},{"bufferView":63,"componentType":5123,"count":144,"max":[111],"min":[0],"type":"SCALAR"},{"bufferView":64,"componentType":5126,"count":216,"max":[0.125,0,0.125],"min":[-0.125,-0.765625,-0.125],"type":"VEC3"},{"bufferView":65,"componentType":5126,"count":216,"max":[1,1,1],"min":[-1,-1,-1],"type":"VEC3"},{"bufferView":66,"componentType":5126,"count":216,"max":[0.568446159362793,0.5703125],"min":[0.0859375,0.2109375],"type":"VEC2"},{"bufferView":67,"componentType":5123,"count":288,"max":[215],"min":[0],"type":"SCALAR"},{"bufferView":68,"componentType":5126,"count":96,"max":[0.5,1,0.5],"min":[-0.5,0,-0.0625],"type":"VEC3"},{"bufferView":69,"componentType":5126,"count":96,"max":[1,1,1],"min":[-1,-1,-1],"type":"VEC3"},{"bufferView":70,"componentType":5126,"count":96,"max":[0.578125,0.5625],"min":[0,0],"type":"VEC2"},{"bufferView":71,"componentType":5123,"count":132,"max":[95],"min":[0],"type":"SCALAR"},{"bufferView":72,"componentType":5126,"count":112,"max":[0.25,0.25,0.25],"min":[-0.25,-0.25,-0.25],"type":"VEC3"},{"bufferView":73,"componentType":5126,"count":112,"max":[0.9238795042037964,0.9238795042037964,0.9238795042037964],"min":[-0.9238795042037964,-0.9238795042037964,-0.9238795042037964],"type":"VEC3"},{"bufferView":74,"componentType":5126,"count":112,"max":[0.5962015390396118,0.59375],"min":[0.041742969304323196,0],"type":"VEC2"},{"bufferView":75,"componentType":5123,"count":144,"max":[111],"min":[0],"type":"SCALAR"},{"bufferView":76,"componentType":5126,"count":112,"max":[0.25,0.25,0.25],"min":[-0.25,-0.25,-0.25],"type":"VEC3"},{"bufferView":77,"componentType":5126,"count":112,"max":[0.9238795042037964,0.9238795042037964,0.9238795042037964],"min":[-0.9238795042037964,-0.9238795042037964,-0.9238795042037964],"type":"VEC3"},{"bufferView":78,"componentType":5126,"count":112,"max":[0.609375,0.6015625],"min":[0.002680468838661909,0.25],"type":"VEC2"},{"bufferView":79,"componentType":5123,"count":144,"max":[111],"min":[0],"type":"SCALAR"}],"materials":[{"pbrMetallicRoughness":{"metallicFactor":0,"roughnessFactor":1,"baseColorTexture":{"index":0}},"alphaMode":"MASK","alphaCutoff":0.05},{"pbrMetallicRoughness":{"metallicFactor":0,"roughnessFactor":1,"baseColorTexture":{"index":1}},"alphaMode":"MASK","alphaCutoff":0.05}],"textures":[{"sampler":0,"source":0,"name":"fox_texture.png"},{"sampler":1,"source":1,"name":"gun.png"}],"samplers":[{"magFilter":9728,"minFilter":9728,"wrapS":33071,"wrapT":33071},{"magFilter":9728,"minFilter":9728,"wrapS":33071,"wrapT":33071}],"images":[{"mimeType":"image/png","uri":"data:image/png;base64,"},{"mimeType":"image/png","uri":"data:image/png;base64,"}],"meshes":[{"primitives":[{"mode":4,"attributes":{"POSITION":0,"NORMAL":1,"TEXCOORD_0":2},"indices":3,"material":0}]},{"primitives":[{"mode":4,"attributes":{"POSITION":4,"NORMAL":5,"TEXCOORD_0":6},"indices":7,"material":0}]},{"primitives":[{"mode":4,"attributes":{"POSITION":8,"NORMAL":9,"TEXCOORD_0":10},"indices":11,"material":0}]},{"primitives":[{"mode":4,"attributes":{"POSITION":12,"NORMAL":13,"TEXCOORD_0":14},"indices":15,"material":1}]},{"primitives":[{"mode":4,"attributes":{"POSITION":16,"NORMAL":17,"TEXCOORD_0":18},"indices":19,"material":1}]},{"primitives":[{"mode":4,"attributes":{"POSITION":20,"NORMAL":21,"TEXCOORD_0":22},"indices":23,"material":1}]},{"primitives":[{"mode":4,"attributes":{"POSITION":24,"NORMAL":25,"TEXCOORD_0":26},"indices":27,"material":1}]},{"primitives":[{"mode":4,"attributes":{"POSITION":28,"NORMAL":29,"TEXCOORD_0":30},"indices":31,"material":1}]},{"primitives":[{"mode":4,"attributes":{"POSITION":32,"NORMAL":33,"TEXCOORD_0":34},"indices":35,"material":1}]},{"primitives":[{"mode":4,"attributes":{"POSITION":36,"NORMAL":37,"TEXCOORD_0":38},"indices":39,"material":0}]},{"primitives":[{"mode":4,"attributes":{"POSITION":40,"NORMAL":41,"TEXCOORD_0":42},"indices":43,"material":0}]},{"primitives":[{"mode":4,"attributes":{"POSITION":44,"NORMAL":45,"TEXCOORD_0":46},"indices":47,"material":0}]},{"primitives":[{"mode":4,"attributes":{"POSITION":48,"NORMAL":49,"TEXCOORD_0":50},"indices":51,"material":0}]},{"primitives":[{"mode":4,"attributes":{"POSITION":52,"NORMAL":53,"TEXCOORD_0":54},"indices":55,"material":0}]},{"primitives":[{"mode":4,"attributes":{"POSITION":56,"NORMAL":57,"TEXCOORD_0":58},"indices":59,"material":0}]},{"primitives":[{"mode":4,"attributes":{"POSITION":60,"NORMAL":61,"TEXCOORD_0":62},"indices":63,"material":0}]},{"primitives":[{"mode":4,"attributes":{"POSITION":64,"NORMAL":65,"TEXCOORD_0":66},"indices":67,"material":0}]},{"primitives":[{"mode":4,"attributes":{"POSITION":68,"NORMAL":69,"TEXCOORD_0":70},"indices":71,"material":0}]},{"primitives":[{"mode":4,"attributes":{"POSITION":72,"NORMAL":73,"TEXCOORD_0":74},"indices":75,"material":0}]},{"primitives":[{"mode":4,"attributes":{"POSITION":76,"NORMAL":77,"TEXCOORD_0":78},"indices":79,"material":0}]}]}