{"asset":{"version":"2.0","generator":"Blockbench 4.12.1 glTF exporter"},"scenes":[{"nodes":[8],"name":"blockbench_export"}],"scene":0,"nodes":[{"translation":[-0.375,0,0.375],"name":"leg","mesh":0},{"rotation":[0,-0.015271037346674513,0,0.9998833909103383],"translation":[-0.375,0.875,0],"name":"cuboid","mesh":1},{"rotation":[0,-1,0,6.123233995736766e-17],"translation":[-0.125,0.875,0],"name":"cuboid","mesh":2},{"translation":[0.125,0.875,0],"name":"cuboid","mesh":3},{"rotation":[0,-1,0,6.123233995736766e-17],"translation":[0.390625,0.875,0],"name":"cuboid","mesh":4},{"rotation":[0,-0.7071067811865475,0,0.7071067811865476],"translation":[0.375,0,0.375],"name":"leg","mesh":5},{"rotation":[0,-0.9940563382223196,0,0.10886687485196474],"translation":[0.375,0,-0.375],"name":"leg","mesh":6},{"rotation":[0,0.7223639620597555,0,0.6915130557822694],"translation":[-0.375,0,-0.375],"name":"leg","mesh":7},{"children":[0,1,2,3,4,5,6,7]}],"bufferViews":[{"buffer":0,"byteOffset":0,"byteLength":3744,"target":34962,"byteStride":12},{"buffer":0,"byteOffset":3744,"byteLength":3744,"target":34962,"byteStride":12},{"buffer":0,"byteOffset":7488,"byteLength":2496,"target":34962,"byteStride":8},{"buffer":0,"byteOffset":9984,"byteLength":864,"target":34963},{"buffer":0,"byteOffset":10848,"byteLength":288,"target":34962,"byteStride":12},{"buffer":0,"byteOffset":11136,"byteLength":288,"target":34962,"byteStride":12},{"buffer":0,"byteOffset":11424,"byteLength":192,"target":34962,"byteStride":8},{"buffer":0,"byteOffset":11616,"byteLength":72,"target":34963},{"buffer":0,"byteOffset":11688,"byteLength":288,"target":34962,"byteStride":12},{"buffer":0,"byteOffset":11976,"byteLength":288,"target":34962,"byteStride":12},{"buffer":0,"byteOffset":12264,"byteLength":192,"target":34962,"byteStride":8},{"buffer":0,"byteOffset":12456,"byteLength":72,"target":34963},{"buffer":0,"byteOffset":12528,"byteLength":288,"target":34962,"byteStride":12},{"buffer":0,"byteOffset":12816,"byteLength":288,"target":34962,"byteStride":12},{"buffer":0,"byteOffset":13104,"byteLength":192,"target":34962,"byteStride":8},{"buffer":0,"byteOffset":13296,"byteLength":72,"target":34963},{"buffer":0,"byteOffset":13368,"byteLength":288,"target":34962,"byteStride":12},{"buffer":0,"byteOffset":13656,"byteLength":288,"target":34962,"byteStride":12},{"buffer":0,"byteOffset":13944,"byteLength":192,"target":34962,"byteStride":8},{"buffer":0,"byteOffset":14136,"byteLength":72,"target":34963},{"buffer":0,"byteOffset":14208,"byteLength":3744,"target":34962,"byteStride":12},{"buffer":0,"byteOffset":17952,"byteLength":3744,"target":34962,"byteStride":12},{"buffer":0,"byteOffset":21696,"byteLength":2496,"target":34962,"byteStride":8},{"buffer":0,"byteOffset":24192,"byteLength":864,"target":34963},{"buffer":0,"byteOffset":25056,"byteLength":3744,"target":34962,"byteStride":12},{"buffer":0,"byteOffset":28800,"byteLength":3744,"target":34962,"byteStride":12},{"buffer":0,"byteOffset":32544,"byteLength":2496,"target":34962,"byteStride":8},{"buffer":0,"byteOffset":35040,"byteLength":864,"target":34963},{"buffer":0,"byteOffset":35904,"byteLength":3744,"target":34962,"byteStride":12},{"buffer":0,"byteOffset":39648,"byteLength":3744,"target":34962,"byteStride":12},{"buffer":0,"byteOffset":43392,"byteLength":2496,"target":34962,"byteStride":8},{"buffer":0,"byteOffset":45888,"byteLength":864,"target":34963}],"buffers":[{"byteLength":46752,"uri":"data:application/octet-stream;base64,"}],"accessors":[{"bufferView":0,"componentType":5126,"count":312,"max":[0.0625,0.875,0.078125],"min":[-0.0625,0,-0.0625],"type":"VEC3"},{"bufferView":1,"componentType":5126,"count":312,"max":[1,1,0.9960377216339111],"min":[-1,-1,-1],"type":"VEC3"},{"bufferView":2,"componentType":5126,"count":312,"max":[0.06470911204814911,0.875],"min":[0,0],"type":"VEC2"},{"bufferView":3,"componentType":5123,"count":432,"max":[311],"min":[0],"type":"SCALAR"},{"bufferView":4,"componentType":5126,"count":24,"max":[0.125,0.0625,0.5],"min":[-0.125,0,-0.5],"type":"VEC3"},{"bufferView":5,"componentType":5126,"count":24,"max":[0.9995115995407104,1,1],"min":[-1,-1,-0.9999904632568359],"type":"VEC3"},{"bufferView":6,"componentType":5126,"count":24,"max":[1,1],"min":[0,0],"type":"VEC2"},{"bufferView":7,"componentType":5123,"count":36,"max":[23],"min":[0],"type":"SCALAR"},{"bufferView":8,"componentType":5126,"count":24,"max":[0.125,0.0625,0.515625],"min":[-0.125,0,-0.515625],"type":"VEC3"},{"bufferView":9,"componentType":5126,"count":24,"max":[1,1,1],"min":[-1,-1,-1],"type":"VEC3"},{"bufferView":10,"componentType":5126,"count":24,"max":[1,1],"min":[0,0],"type":"VEC2"},{"bufferView":11,"componentType":5123,"count":36,"max":[23],"min":[0],"type":"SCALAR"},{"bufferView":12,"componentType":5126,"count":24,"max":[0.125,0.0625,0.5],"min":[-0.125,0,-0.5],"type":"VEC3"},{"bufferView":13,"componentType":5126,"count":24,"max":[1,1,1],"min":[-1,-1,-1],"type":"VEC3"},{"bufferView":14,"componentType":5126,"count":24,"max":[1,1],"min":[0,0],"type":"VEC2"},{"bufferView":15,"componentType":5123,"count":36,"max":[23],"min":[0],"type":"SCALAR"},{"bufferView":16,"componentType":5126,"count":24,"max":[0.125,0.0625,0.53125],"min":[-0.125,0,-0.484375],"type":"VEC3"},{"bufferView":17,"componentType":5126,"count":24,"max":[1,1,1],"min":[-1,-1,-1],"type":"VEC3"},{"bufferView":18,"componentType":5126,"count":24,"max":[1,1],"min":[0,0],"type":"VEC2"},{"bufferView":19,"componentType":5123,"count":36,"max":[23],"min":[0],"type":"SCALAR"},{"bufferView":20,"componentType":5126,"count":312,"max":[0.0625,0.875,0.078125],"min":[-0.0625,0,-0.0625],"type":"VEC3"},{"bufferView":21,"componentType":5126,"count":312,"max":[1,1,0.9960377216339111],"min":[-1,-1,-1],"type":"VEC3"},{"bufferView":22,"componentType":5126,"count":312,"max":[0.06470911204814911,0.875],"min":[0,0],"type":"VEC2"},{"bufferView":23,"componentType":5123,"count":432,"max":[311],"min":[0],"type":"SCALAR"},{"bufferView":24,"componentType":5126,"count":312,"max":[0.0625,0.875,0.078125],"min":[-0.0625,0,-0.0625],"type":"VEC3"},{"bufferView":25,"componentType":5126,"count":312,"max":[1,1,0.9960377216339111],"min":[-1,-1,-1],"type":"VEC3"},{"bufferView":26,"componentType":5126,"count":312,"max":[0.06470911204814911,0.875],"min":[0,0],"type":"VEC2"},{"bufferView":27,"componentType":5123,"count":432,"max":[311],"min":[0],"type":"SCALAR"},{"bufferView":28,"componentType":5126,"count":312,"max":[0.0625,0.875,0.078125],"min":[-0.0625,0,-0.0625],"type":"VEC3"},{"bufferView":29,"componentType":5126,"count":312,"max":[1,1,0.9960377216339111],"min":[-1,-1,-1],"type":"VEC3"},{"bufferView":30,"componentType":5126,"count":312,"max":[0.06470911204814911,0.875],"min":[0,0],"type":"VEC2"},{"bufferView":31,"componentType":5123,"count":432,"max":[311],"min":[0],"type":"SCALAR"}],"materials":[{"pbrMetallicRoughness":{"metallicFactor":0,"roughnessFactor":1},"alphaMode":"MASK","alphaCutoff":0.05}],"meshes":[{"primitives":[{"mode":4,"attributes":{"POSITION":0,"NORMAL":1,"TEXCOORD_0":2},"indices":3,"material":0}]},{"primitives":[{"mode":4,"attributes":{"POSITION":4,"NORMAL":5,"TEXCOORD_0":6},"indices":7,"material":0}]},{"primitives":[{"mode":4,"attributes":{"POSITION":8,"NORMAL":9,"TEXCOORD_0":10},"indices":11,"material":0}]},{"primitives":[{"mode":4,"attributes":{"POSITION":12,"NORMAL":13,"TEXCOORD_0":14},"indices":15,"material":0}]},{"primitives":[{"mode":4,"attributes":{"POSITION":16,"NORMAL":17,"TEXCOORD_0":18},"indices":19,"material":0}]},{"primitives":[{"mode":4,"attributes":{"POSITION":20,"NORMAL":21,"TEXCOORD_0":22},"indices":23,"material":0}]},{"primitives":[{"mode":4,"attributes":{"POSITION":24,"NORMAL":25,"TEXCOORD_0":26},"indices":27,"material":0}]},{"primitives":[{"mode":4,"attributes":{"POSITION":28,"NORMAL":29,"TEXCOORD_0":30},"indices":31,"material":0}]}]}